HIERARCHY
ROOT root
{
	OFFSET	0	13.1	24.9
	CHANNELS 6  Xposition Yposition Zposition Xrotation Yrotation Zrotation
	JOINT spine_1
	{
		OFFSET	0	9.99999	0
		CHANNELS 3  Xrotation Yrotation Zrotation
		JOINT spine_2
		{
			OFFSET	0	112	-10
			CHANNELS 3  Xrotation Yrotation Zrotation
			JOINT spine_3
			{
				OFFSET	0	206.5	19.3
				CHANNELS 3  Xrotation Yrotation Zrotation
				JOINT spine_4
				{
					OFFSET	0	110.4	14.6
					CHANNELS 3  Xrotation Yrotation Zrotation
					JOINT neck_1
					{
						OFFSET	0	71.8	-50.3
						CHANNELS 3  Xrotation Yrotation Zrotation
						JOINT neck_2
						{
							OFFSET	0	86.2	-25.8
							CHANNELS 3  Xrotation Yrotation Zrotation
							JOINT head_ee
							{
								OFFSET	0	179.8	-8.7
								CHANNELS 3  Xrotation Yrotation Zrotation
								End Site
								{
									OFFSET	1	0	0
								}
							}
						}
					}
					JOINT left_clavicle
					{
						OFFSET	-43.2	22.4	-70.8
						CHANNELS 3  Xrotation Yrotation Zrotation
						JOINT left_shoulder
						{
							OFFSET	-93.9	-5.79999	48.7
							CHANNELS 3  Xrotation Yrotation Zrotation
							JOINT left_elbow
							{
								OFFSET	-291.4	-30.8	15.2
								CHANNELS 3  Xrotation Yrotation Zrotation
								JOINT left_lowarm_twist
								{
									OFFSET	-110.7	-3.89999	13.6
									CHANNELS 3  Xrotation Yrotation Zrotation
									JOINT left_hand
									{
										OFFSET	-110.7	-3.89999	13.6
										CHANNELS 3  Xrotation Yrotation Zrotation
										JOINT left_ee
										{
											OFFSET	-80.8	-5.10001	12.1
											CHANNELS 3  Xrotation Yrotation Zrotation
											End Site
											{
												OFFSET	1	0	0
											}
										}
									}
								}
							}
						}
					}
					JOINT right_clavicle
					{
						OFFSET	43.2	22.4	-70.8
						CHANNELS 3  Xrotation Yrotation Zrotation
						JOINT right_shoulder
						{
							OFFSET	93.9	-5.79999	48.7
							CHANNELS 3  Xrotation Yrotation Zrotation
							JOINT right_elbow
							{
								OFFSET	291.4	-30.8	15.2
								CHANNELS 3  Xrotation Yrotation Zrotation
								JOINT right_lowarm_twist
								{
									OFFSET	110.7	-3.89999	13.6
									CHANNELS 3  Xrotation Yrotation Zrotation
									JOINT right_hand
									{
										OFFSET	110.7	-3.89999	13.6
										CHANNELS 3  Xrotation Yrotation Zrotation
										JOINT right_ee
										{
											OFFSET	80.8	-5.10001	12.1
											CHANNELS 3  Xrotation Yrotation Zrotation
											End Site
											{
												OFFSET	1	0	0
											}
										}
									}
								}
							}
						}
					}
				}
			}
		}
	}
	JOINT left_hip
	{
		OFFSET	-82.8	-127.5	0.300001
		CHANNELS 3  Xrotation Yrotation Zrotation
		JOINT left_knee
		{
			OFFSET	-28.2	-396.7	2.2
			CHANNELS 3  Xrotation Yrotation Zrotation
			JOINT left_ankle
			{
				OFFSET	-11.7	-411.3	35.4
				CHANNELS 3  Xrotation Yrotation Zrotation
				JOINT left_toes
				{
					OFFSET	0	-60	-88.6
					CHANNELS 3  Xrotation Yrotation Zrotation
					JOINT left_foot_ee
					{
						OFFSET	-22.5	-16.5	-42.2
						CHANNELS 3  Xrotation Yrotation Zrotation
						End Site
						{
							OFFSET	1	0	0
						}
					}
				}
			}
		}
	}
	JOINT right_hip
	{
		OFFSET	82.8	-127.5	0.300001
		CHANNELS 3  Xrotation Yrotation Zrotation
		JOINT right_knee
		{
			OFFSET	28.2	-396.7	2.2
			CHANNELS 3  Xrotation Yrotation Zrotation
			JOINT right_ankle
			{
				OFFSET	11.7	-411.3	35.4
				CHANNELS 3  Xrotation Yrotation Zrotation
				JOINT right_toes
				{
					OFFSET	0	-60	-88.6
					CHANNELS 3  Xrotation Yrotation Zrotation
					JOINT right_foot_ee
					{
						OFFSET	22.5	-16.5	-42.2
						CHANNELS 3  Xrotation Yrotation Zrotation
						End Site
						{
							OFFSET	1	0	0
						}
					}
				}
			}
		}
	}
}
MOTION
Frames: 13
Frame Time: 0.02
3177.02 653.055 -1669.29 47.3805178648 83.8499674384 -40.297110804 -1.73651 -0.445344 -3.42696 -1.73 -0.226508 -3.44832 -1.71008 0.605685 -3.40231 -1.72623 0.0610863 -3.4552 -24.167 4.51835 8.01705 -24.0338 5.23611 9.63219 -0.0 0.0 -0.0 5.73841 13.2561 11.0786 -29.133 -31.1071 66.8885 0.324507 -9.13245 0.0259168 -74.0539 -7.06398 5.3202 4.15847 -7.63431 25.6665 -0.0 0.0 -0.0 6.97678 20.4137 -12.6939 12.0752 11.5181 -59.7631 2.84289 54.6117 -1.46791 67.7474 2.51004 7.7742 3.36087 -29.0189 -31.1956 0.0 0.0 0.0 37.5653 47.6707 -18.8138 0.233834 -0.00969931 -0.0345728 6.13008 -19.4804 -0.995548 -8.36793 0.0 0.0 -0.0 0.0 -0.0 -30.815 15.4656 -7.04296 -0.0943374 -0.00387318 -0.0139589 34.0664 -13.2231 4.34421 -27.3737 0.0 0.0 0.0 0.0 0.0 
3177.02 653.055 -1669.29 48.7015529821 83.9766283961 -41.6256338911 -1.73651 -0.445344 -3.42696 -1.73 -0.226508 -3.44832 -1.71008 0.605685 -3.40231 -1.72623 0.0610863 -3.4552 -24.167 4.51835 8.01705 -24.0338 5.23611 9.63219 -0.0 0.0 -0.0 5.73841 13.2561 11.0786 -29.133 -31.1071 66.8885 0.324507 -9.13245 0.0259168 -74.0539 -7.06398 5.3202 4.15847 -7.63431 25.6665 -0.0 0.0 -0.0 6.97678 20.4137 -12.6939 12.0752 11.5181 -59.7631 2.84289 54.6117 -1.46791 67.7474 2.51004 7.7742 3.36087 -29.0189 -31.1956 0.0 0.0 0.0 37.5653 47.6707 -18.8138 0.233834 -0.00969931 -0.0345728 6.13008 -19.4804 -0.995548 -8.36793 0.0 0.0 -0.0 0.0 -0.0 -30.815 15.4656 -7.04296 -0.0943374 -0.00387318 -0.0139589 34.0664 -13.2231 4.34421 -27.3737 0.0 0.0 0.0 0.0 0.0 
3155.59425645 662.679 -1663.286347 43.243475089 84.5464085484 -36.2470905939 -1.41894 -0.643055 -3.39369 -1.41264 -0.425933 -3.42767 -1.38108 0.387035 -3.43228 -1.39748 -0.159553 -3.45032 -22.3582 4.95057 7.44155 -22.2597 6.08691 9.14981 -0.0 0.0 -0.0 6.01015 12.6636 11.5558 -28.2646 -31.3837 67.0883 0.307982 -8.67466 0.0233591 -73.0634 -6.93738 5.31922 3.8999 -6.38073 24.3255 -0.0 0.0 -0.0 6.30743 18.2986 -11.4059 9.07459 13.4241 -60.7317 2.84878 54.6676 -1.47272 66.8667 2.42189 7.70352 3.26398 -29.2663 -30.5971 0.0 0.0 0.0 36.6004 47.5351 -18.2224 -1.23343 0.0488182 0.182988 5.97158 -20.5908 -0.980465 -6.85762 0.0 0.0 -0.0 0.0 -0.0 -30.8531 15.3998 -6.47185 0.141215 0.00584054 0.0208835 27.4331 -13.9162 3.63855 -24.66 0.0 0.0 0.0 0.0 0.0 
3155.62137524 662.679 -1663.19039393 45.1507651007 84.7305139644 -38.1627578042 -1.41894 -0.643055 -3.39369 -1.41264 -0.425933 -3.42767 -1.38108 0.387035 -3.43228 -1.39748 -0.159553 -3.45032 -22.3582 4.95057 7.44155 -22.2597 6.08691 9.14981 -0.0 0.0 -0.0 6.01015 12.6636 11.5558 -28.2646 -31.3837 67.0883 0.307982 -8.67466 0.0233591 -73.0634 -6.93738 5.31922 3.8999 -6.38073 24.3255 -0.0 0.0 -0.0 6.30743 18.2986 -11.4059 9.07459 13.4241 -60.7317 2.84878 54.6676 -1.47272 66.8667 2.42189 7.70352 3.26398 -29.2663 -30.5971 0.0 0.0 0.0 36.6004 47.5351 -18.2224 -1.23343 0.0488182 0.182988 5.97158 -20.5908 -0.980465 -6.85762 0.0 0.0 -0.0 0.0 -0.0 -30.8531 15.3998 -6.47185 0.141215 0.00584054 0.0208835 27.4331 -13.9162 3.63855 -24.66 0.0 0.0 0.0 0.0 0.0 
3117.82931834 670.924 -1647.17629056 27.6320071073 84.2374487314 -20.5641584465 -1.15743 -0.579518 -3.44704 -1.15089 -0.359136 -3.47688 -1.12345 0.448019 -3.46656 -1.1402 -0.104736 -3.49379 -22.0706 4.33341 4.93518 -22.0592 6.03713 6.53363 -0.0 0.0 -0.0 7.21222 12.2809 13.6429 -27.1619 -31.8848 65.1007 0.315751 -8.89001 0.0245452 -72.8742 -6.9132 5.31879 2.47249 2.38411 17.6964 -0.0 0.0 -0.0 5.01667 10.7202 -9.17649 7.32409 14.8624 -62.7126 2.88803 55.0364 -1.50481 66.2011 2.356 7.64922 2.69627 -29.8573 -27.0993 0.0 0.0 0.0 33.8815 46.181 -15.9657 -3.07251 0.114256 0.457634 8.24222 -24.2464 -1.39307 -4.40875 0.0 0.0 -0.0 0.0 -0.0 -30.1848 14.8507 -4.98601 0.831009 0.0351103 0.122688 14.8402 -18.5415 2.11032 -22.8106 0.0 0.0 0.0 0.0 0.0 
3067.13865613 681.481 -1640.972562 23.5683252862 82.7941267137 -15.4144735134 -0.90813 -0.59092 -3.96183 -0.899463 -0.337826 -3.99134 -0.869253 0.569455 -3.96497 -0.891181 -0.0633634 -4.00509 -20.6677 3.07251 3.95227 -20.6456 3.96536 4.98172 -0.0 0.0 -0.0 9.00035 11.5176 16.8661 -28.0581 -31.5251 61.5159 0.360057 -10.1132 0.0318596 -72.0351 -6.80596 5.31588 1.77948 5.82804 14.2366 -0.0 0.0 -0.0 3.45928 5.76851 -6.29566 3.44071 17.2542 -63.7023 2.81186 54.3145 -1.44266 63.9528 2.1382 7.46023 2.03948 -29.7478 -23.1151 0.0 0.0 0.0 28.6153 46.6042 -15.7807 0.355324 -0.0147943 -0.05252 10.0421 -30.4518 -1.81869 -1.78233 0.0 0.0 -0.0 0.0 -0.0 -28.2789 15.5698 -4.89526 -5.5951 -0.189596 -0.837412 2.35677 -22.1376 0.353092 -22.7049 0.0 0.0 0.0 0.0 0.0 
3067.1424389 681.481 -1640.95788763 23.5925476297 82.8011396153 -15.4388885027 -0.90813 -0.59092 -3.96183 -0.899463 -0.337826 -3.99134 -0.869253 0.569455 -3.96497 -0.891181 -0.0633634 -4.00509 -20.6677 3.07251 3.95227 -20.6456 3.96536 4.98172 -0.0 0.0 -0.0 9.00035 11.5176 16.8661 -28.0581 -31.5251 61.5159 0.360057 -10.1132 0.0318596 -72.0351 -6.80596 5.31588 1.77948 5.82804 14.2366 -0.0 0.0 -0.0 3.45928 5.76851 -6.29566 3.44071 17.2542 -63.7023 2.81186 54.3145 -1.44266 63.9528 2.1382 7.46023 2.03948 -29.7478 -23.1151 0.0 0.0 0.0 28.6153 46.6042 -15.7807 0.355324 -0.0147943 -0.05252 10.0421 -30.4518 -1.81869 -1.78233 0.0 0.0 -0.0 0.0 -0.0 -28.2789 15.5698 -4.89526 -5.5951 -0.189596 -0.837412 2.35677 -22.1376 0.353092 -22.7049 0.0 0.0 0.0 0.0 0.0 
3067.01131792 681.481 -1641.47135713 22.7727131205 82.5551507011 -14.6123161624 -0.90813 -0.59092 -3.96183 -0.899463 -0.337826 -3.99134 -0.869253 0.569455 -3.96497 -0.891181 -0.0633634 -4.00509 -20.6677 3.07251 3.95227 -20.6456 3.96536 4.98172 -0.0 0.0 -0.0 9.00035 11.5176 16.8661 -28.0581 -31.5251 61.5159 0.360057 -10.1132 0.0318596 -72.0351 -6.80596 5.31588 1.77948 5.82804 14.2366 -0.0 0.0 -0.0 3.45928 5.76851 -6.29566 3.44071 17.2542 -63.7023 2.81186 54.3145 -1.44266 63.9528 2.1382 7.46023 2.03948 -29.7478 -23.1151 0.0 0.0 0.0 28.6153 46.6042 -15.7807 0.355324 -0.0147943 -0.05252 10.0421 -30.4518 -1.81869 -1.78233 0.0 0.0 -0.0 0.0 -0.0 -28.2789 15.5698 -4.89526 -5.5951 -0.189596 -0.837412 2.35677 -22.1376 0.353092 -22.7049 0.0 0.0 0.0 0.0 0.0 
3066.96983714 681.481 -1641.63591026 22.5215655666 82.4760696141 -14.3590106097 -0.90813 -0.59092 -3.96183 -0.899463 -0.337826 -3.99134 -0.869253 0.569455 -3.96497 -0.891181 -0.0633634 -4.00509 -20.6677 3.07251 3.95227 -20.6456 3.96536 4.98172 -0.0 0.0 -0.0 9.00035 11.5176 16.8661 -28.0581 -31.5251 61.5159 0.360057 -10.1132 0.0318596 -72.0351 -6.80596 5.31588 1.77948 5.82804 14.2366 -0.0 0.0 -0.0 3.45928 5.76851 -6.29566 3.44071 17.2542 -63.7023 2.81186 54.3145 -1.44266 63.9528 2.1382 7.46023 2.03948 -29.7478 -23.1151 0.0 0.0 0.0 28.6153 46.6042 -15.7807 0.355324 -0.0147943 -0.05252 10.0421 -30.4518 -1.81869 -1.78233 0.0 0.0 -0.0 0.0 -0.0 -28.2789 15.5698 -4.89526 -5.5951 -0.189596 -0.837412 2.35677 -22.1376 0.353092 -22.7049 0.0 0.0 0.0 0.0 0.0 
3066.98473561 681.481 -1641.57668883 22.6113285637 82.5045434979 -14.449550183 -0.90813 -0.59092 -3.96183 -0.899463 -0.337826 -3.99134 -0.869253 0.569455 -3.96497 -0.891181 -0.0633634 -4.00509 -20.6677 3.07251 3.95227 -20.6456 3.96536 4.98172 -0.0 0.0 -0.0 9.00035 11.5176 16.8661 -28.0581 -31.5251 61.5159 0.360057 -10.1132 0.0318596 -72.0351 -6.80596 5.31588 1.77948 5.82804 14.2366 -0.0 0.0 -0.0 3.45928 5.76851 -6.29566 3.44071 17.2542 -63.7023 2.81186 54.3145 -1.44266 63.9528 2.1382 7.46023 2.03948 -29.7478 -23.1151 0.0 0.0 0.0 28.6153 46.6042 -15.7807 0.355324 -0.0147943 -0.05252 10.0421 -30.4518 -1.81869 -1.78233 0.0 0.0 -0.0 0.0 -0.0 -28.2789 15.5698 -4.89526 -5.5951 -0.189596 -0.837412 2.35677 -22.1376 0.353092 -22.7049 0.0 0.0 0.0 0.0 0.0 
3019.54782129 693.442 -1650.26651291 15.8967890544 79.4339646755 -6.01565108606 -0.783567 -0.501941 -4.78576 -0.770852 -0.196753 -4.80794 -0.745642 0.881571 -4.73069 -0.776837 0.124285 -4.81035 -20.2268 3.49369 8.64112 -20.0228 2.38129 9.48162 -0.0 0.0 -0.0 10.2091 9.87815 19.2639 -24.8759 -33.7845 57.6259 0.54618 -15.1397 0.0725841 -71.5296 -6.74136 5.31336 0.795994 13.8637 10.7241 -0.0 0.0 -0.0 1.50055 -0.0525718 -2.89551 1.42753 18.8569 -65.4553 2.38521 49.7502 -1.10605 62.5296 2.00424 7.33627 1.05411 -28.0596 -16.9598 0.0 0.0 0.0 20.9833 39.8691 -13.4835 7.10352 -0.356974 -1.03049 9.37254 -29.7373 -1.68591 -3.88206 0.0 0.0 -0.0 0.0 -0.0 -23.1208 9.32249 -6.22008 -18.4309 -0.311012 -2.79911 -4.41435 -22.1209 -0.67084 -21.5917 0.0 0.0 0.0 0.0 0.0 
3007.39551745 698.746 -1649.23230773 14.1381128097 79.2821436173 -3.58691677421 -0.671599 -0.580444 -5.12755 -0.657016 -0.253431 -5.154 -0.62454 0.892936 -5.08257 -0.660561 0.0801464 -5.15959 -19.5307 4.04665 9.99184 -19.2568 2.63963 10.9246 -0.0 0.0 -0.0 10.4855 9.75146 19.8001 -22.9925 -34.2885 57.7025 0.613384 -16.9017 0.0911335 -70.9798 -6.67113 5.30998 0.240719 16.6125 8.25823 -0.0 0.0 -0.0 1.20068 -1.19911 -2.43013 0.613556 17.7002 -65.2311 2.38213 49.7137 -1.10369 62.5398 2.00519 7.33717 0.901157 -27.3376 -15.87 0.0 0.0 0.0 19.7589 37.9486 -14.0953 7.18721 -0.361937 -1.04236 14.2845 -30.2722 -2.52958 -4.52913 0.0 0.0 -0.0 0.0 -0.0 -19.5075 8.50798 -6.79436 -22.652 -0.25472 -3.4442 -9.48751 -24.9677 -1.47256 -22.3048 0.0 0.0 0.0 0.0 0.0 
2992.3743622 694.696 -1647.24055517 8.17912636316 78.5248578121 3.28603939698 -0.398201 -0.803949 -5.15296 -0.383561 -0.474877 -5.19353 -0.331203 0.658333 -5.17353 -0.368495 -0.165842 -5.2125 -16.3482 5.43514 10.5277 -16.0526 4.40678 11.7763 -0.0 0.0 -0.0 10.5735 6.25561 20.3534 -21.1792 -32.8818 57.9572 0.627599 -17.2703 0.09531 -70.2945 -6.58361 5.3048 -0.0400901 18.4433 7.23527 -0.0 0.0 -0.0 0.843254 -1.80198 -1.81182 -0.617007 17.943 -65.3387 2.319 48.9534 -1.0558 62.4174 1.99381 7.32636 0.771893 -26.9914 -15.022 0.0 0.0 0.0 21.1144 37.1623 -15.695 5.81691 -0.282858 -0.847184 17.9376 -29.9917 -3.10425 -5.05231 0.0 0.0 -0.0 0.0 -0.0 -16.5898 7.67436 -6.80946 -27.1119 -0.143807 -4.11947 -12.1577 -24.8174 -1.8916 -22.8259 0.0 0.0 0.0 0.0 0.0 
